<svg width="36" height="36" viewBox="0 0 36 36" fill="none" xmlns="http://www.w3.org/2000/svg">
<circle cx="18" cy="18" r="17.5" stroke="#6B7488" stroke-dasharray="4 2"/>
<path fill-rule="evenodd" clip-rule="evenodd" d="M20.6 13.2C20.6 14.6359 19.436 15.8 18 15.8C16.5641 15.8 15.4 14.6359 15.4 13.2C15.4 11.764 16.5641 10.6 18 10.6C19.436 10.6 20.6 11.764 20.6 13.2ZM21.6 13.2C21.6 15.1882 19.9883 16.8 18 16.8C16.0118 16.8 14.4 15.1882 14.4 13.2C14.4 11.2118 16.0118 9.59998 18 9.59998C19.9883 9.59998 21.6 11.2118 21.6 13.2ZM14.8 19H21.2C22.8569 19 24.2 20.3431 24.2 22V24.2H11.8V22C11.8 20.3431 13.1432 19 14.8 19ZM10.8 22C10.8 19.7908 12.5909 18 14.8 18H21.2C23.4092 18 25.2 19.7908 25.2 22V24.2V25.2H24.2H11.8H10.8V24.2V22Z" fill="#6B7488"/>
</svg>
