<svg width="36" height="36" viewBox="0 0 36 36" fill="none" xmlns="http://www.w3.org/2000/svg">
<circle cx="18" cy="18" r="17.5" stroke="#6B7488" stroke-dasharray="4 2"/>
<path fill-rule="evenodd" clip-rule="evenodd" d="M18.0001 9H17.0001V10V10.083C14.1623 10.559 12.0001 13.027 12.0001 16V19V19.2H11.8H10.8V20.2V21.8V22.8H11.8H24.2H25.2V21.8V20.2V19.2H24.2H24.0001V19V16C24.0001 13.027 21.8378 10.559 19.0001 10.083V10V9H18.0001ZM13.0001 16C13.0001 13.2386 15.2386 11 18.0001 11C20.7615 11 23.0001 13.2386 23.0001 16V19H13.0001V16ZM24.2 20.2V21.8H11.8V20.2H24.2ZM15.7 23.6001V24.8001V25.3001H16.2H19.8H20.3V24.8001V23.6001H19.3V24.3001H16.7V23.6001H15.7Z" fill="#6B7488"/>
<circle cx="5.4" cy="5.4" r="5.4" fill="#EA2C2C"/>
</svg>
