<svg width="21" height="20" viewBox="0 0 21 20" fill="none" xmlns="http://www.w3.org/2000/svg">
<mask id="path-1-inside-1_33_193" fill="white">
<path fill-rule="evenodd" clip-rule="evenodd" d="M18.9001 14.0007C20.2187 12.5382 21 10.7201 21 8.75C21 3.91751 16.299 0 10.5 0C4.70101 0 0 3.91751 0 8.75C0 13.5825 4.70101 17.5 10.5 17.5C11.9623 17.5 13.3548 17.2509 14.6196 16.8008C16.3953 18.0632 18.4501 18.8857 20.6143 19.1949L21 19.25L19.8489 16.9478C19.4514 16.1528 19.1617 15.3084 18.9874 14.4368L18.9001 14.0007Z"/>
</mask>
<path fill-rule="evenodd" clip-rule="evenodd" d="M18.9001 14.0007C20.2187 12.5382 21 10.7201 21 8.75C21 3.91751 16.299 0 10.5 0C4.70101 0 0 3.91751 0 8.75C0 13.5825 4.70101 17.5 10.5 17.5C11.9623 17.5 13.3548 17.2509 14.6196 16.8008C16.3953 18.0632 18.4501 18.8857 20.6143 19.1949L21 19.25L19.8489 16.9478C19.4514 16.1528 19.1617 15.3084 18.9874 14.4368L18.9001 14.0007Z" fill="#F0F3FA"/>
<path d="M18.9001 14.0007L18.6031 13.7329L18.4685 13.8821L18.5079 14.0791L18.9001 14.0007ZM14.6196 16.8008L14.8514 16.4748L14.6817 16.3542L14.4856 16.424L14.6196 16.8008ZM20.6143 19.1949L20.5577 19.5909L20.5577 19.5909L20.6143 19.1949ZM21 19.25L20.9434 19.646L21.6992 19.7539L21.3578 19.0711L21 19.25ZM19.8489 16.9478L19.4911 17.1267L19.4911 17.1267L19.8489 16.9478ZM18.9874 14.4368L19.3796 14.3584L19.3796 14.3584L18.9874 14.4368ZM20.6 8.75C20.6 10.6099 19.8633 12.335 18.6031 13.7329L19.1972 14.2685C20.5741 12.7413 21.4 10.8303 21.4 8.75H20.6ZM10.5 0.4C16.1495 0.4 20.6 4.20361 20.6 8.75H21.4C21.4 3.63141 16.4485 -0.4 10.5 -0.4V0.4ZM0.4 8.75C0.4 4.20361 4.85054 0.4 10.5 0.4V-0.4C4.55148 -0.4 -0.4 3.63141 -0.4 8.75H0.4ZM10.5 17.1C4.85054 17.1 0.4 13.2964 0.4 8.75H-0.4C-0.4 13.8686 4.55148 17.9 10.5 17.9V17.1ZM14.4856 16.424C13.264 16.8586 11.9169 17.1 10.5 17.1V17.9C12.0077 17.9 13.4455 17.6432 14.7537 17.1777L14.4856 16.424ZM20.6709 18.7989C18.5699 18.4988 16.5752 17.7003 14.8514 16.4748L14.3879 17.1269C16.2155 18.4261 18.3303 19.2727 20.5577 19.5909L20.6709 18.7989ZM21.0566 18.854L20.6709 18.7989L20.5577 19.5909L20.9434 19.646L21.0566 18.854ZM19.4911 17.1267L20.6422 19.4289L21.3578 19.0711L20.2067 16.7689L19.4911 17.1267ZM18.5951 14.5153C18.7764 15.4217 19.0777 16.2999 19.4911 17.1267L20.2067 16.7689C19.8251 16.0057 19.5469 15.1951 19.3796 14.3584L18.5951 14.5153ZM18.5079 14.0791L18.5951 14.5153L19.3796 14.3584L19.2924 13.9222L18.5079 14.0791Z" fill="#ACB3C0" mask="url(#path-1-inside-1_33_193)"/>
<rect x="4.66675" y="5.83325" width="10.5" height="2.33333" fill="#C6CDDE"/>
<rect x="7" y="10.5" width="8.16667" height="2.33333" fill="#C6CDDE"/>
</svg>
